PathFileType	4	(X/Y/Z)	C:\Users\Basilio\Documents\Thesis Gigler\squatting_fais\c3dfiles\073\SLS_back_pre3\markers_experimental.trc
DataRate	CameraRate	NumFrames	NumMarkers	Units	OrigDataRate	OrigDataStartFrame	OrigNumFrames
200.000000	200.000000	4	61	mm	200.000000	1152	1317
Frame#	Time	FHD			LBHD			RBHD			C7			T10			CLAV			LSHO			LUUPA			LMUPA			LDUPA			LLEP			LMEP			LRAD			LUL			LRFIN			RSHO			RUPA1			RMUPA			RDUPA			RLEP			RMEP			RUL			RUFIN			LASI			RASI			USACR			LSACR			RSACR			LTHI1			LTHI2			LTHI3			LTHI4			LLFC			LMFC			LTIB1			LTIB2			LTIB3			LTIB4			LLMAL			LMMAL			LHEE			LMT1			LMT2			LMT5			RTHI			RTHI2			RTHI3			RTHI4			RLFC			RMFC			RTIB1			RTIB2			RTIB3			RTIB4			RLMAL			RMMAL			RHEE			RMT1			RMT2			RMT5			RRAD			
		X1	Y1	Z1	X2	Y2	Z2	X3	Y3	Z3	X4	Y4	Z4	X5	Y5	Z5	X6	Y6	Z6	X7	Y7	Z7	X8	Y8	Z8	X9	Y9	Z9	X10	Y10	Z10	X11	Y11	Z11	X12	Y12	Z12	X13	Y13	Z13	X14	Y14	Z14	X15	Y15	Z15	X16	Y16	Z16	X17	Y17	Z17	X18	Y18	Z18	X19	Y19	Z19	X20	Y20	Z20	X21	Y21	Z21	X22	Y22	Z22	X23	Y23	Z23	X24	Y24	Z24	X25	Y25	Z25	X26	Y26	Z26	X27	Y27	Z27	X28	Y28	Z28	X29	Y29	Z29	X30	Y30	Z30	X31	Y31	Z31	X32	Y32	Z32	X33	Y33	Z33	X34	Y34	Z34	X35	Y35	Z35	X36	Y36	Z36	X37	Y37	Z37	X38	Y38	Z38	X39	Y39	Z39	X40	Y40	Z40	X41	Y41	Z41	X42	Y42	Z42	X43	Y43	Z43	X44	Y44	Z44	X45	Y45	Z45	X46	Y46	Z46	X47	Y47	Z47	X48	Y48	Z48	X49	Y49	Z49	X50	Y50	Z50	X51	Y51	Z51	X52	Y52	Z52	X53	Y53	Z53	X54	Y54	Z54	X55	Y55	Z55	X56	Y56	Z56	X57	Y57	Z57	X58	Y58	Z58	X59	Y59	Z59	X60	Y60	Z60	X61	Y61	Z61	

1153	5.76	-162.4691772460938	1691.450561523438	-755.6769409179689	-294.5680847167969	1651.671630859375	-779.3488769531252	-315.2347412109376	1631.768798828125	-645.7033691406251	-341.2072753906251	1531.957275390625	-709.4282226562501	-404.387176513672	1201.90380859375	-725.6580200195314	-216.6978302001954	1447.527099609375	-712.5743408203126	-253.0826873779297	1501.297973632813	-852.022888183594	-170.8362426757813	1434.015502929688	-950.6313476562502	-130.8469848632813	1456.73095703125	-929.3421020507815	-106.6534423828125	1411.837280273438	-963.4814453125002	-1.197374939918518	1395.191650390625	-970.0671997070315	-0.1294406056404114	1338.263305664063	-928.610534667969	255.1350097656251	1441.470581054688	-856.2675781250002	259.8617858886719	1439.689331054688	-930.955749511719	336.7829589843751	1456.140380859375	-848.5820312500002	-233.2592773437501	1487.78125	-567.3360595703126	-141.7311401367188	1382.503173828125	-470.1000366210939	-102.5546340942383	1406.577270507813	-484.1087951660157	-78.21849822998048	1355.859741210938	-463.3476867675782	14.31668567657471	1341.703002929688	-462.148406982422	14.07680797576905	1290.896362304688	-528.9832763671876	271.5627136230469	1404.313720703125	-504.0518798828126	352.7068481445313	1428.932006835938	-580.3532714843751	-254.0572967529297	1029.751708984375	-855.710632324219	-246.8366851806641	1027.527587890625	-605.5673828125001	-429.7464599609376	1098.634765625	-727.3052368164064	-442.9537048339845	1070.45166015625	-755.6403198242189	-447.071502685547	1068.840454101563	-699.3884887695314	-232.7115173339844	709.6567382812501	-904.6956787109377	-182.7037506103516	642.8529663085939	-885.7883300781252	-144.1690521240235	655.0671997070314	-857.7468872070315	-202.6796875000001	586.5163574218751	-877.1213989257815	-206.9721679687501	541.2155151367189	-876.630554199219	-216.6019439697266	539.9616699218751	-739.7352294921876	-355.3434448242188	428.024383544922	-826.8966064453127	-408.3543395996095	468.3483886718751	-881.9775390625002	-404.605438232422	430.8727416992189	-860.381042480469	-479.8640441894532	409.6949157714845	-829.0407714843752	-609.2151489257814	434.0944213867189	-860.0136718750002	-584.0390625000001	434.5535583496095	-773.751159667969	-648.8345947265626	490.8462524414064	-821.3156738281252	-622.0223999023439	273.3186035156251	-765.3068847656251	-626.7641601562501	266.4725036621094	-801.9841308593752	-651.3253784179689	294.0311584472657	-859.588562011719	-351.7983703613282	798.684753417969	-550.6884155273439	-319.5872192382813	741.1166992187501	-554.3330078125001	-286.2540893554688	740.7664184570314	-554.8173828125001	-349.3276367187501	667.6376953125001	-579.9774780273439	-337.3916625976563	516.0135498046876	-606.7585449218751	-334.2695312500001	515.9806518554689	-738.1029663085939	-295.3330383300782	361.0227966308594	-708.7882080078126	-317.6779174804688	273.4501953125001	-649.9575805664064	-292.6695251464844	275.7243957519532	-691.6359863281251	-311.0965576171876	234.1481018066407	-728.3303222656251	-360.9804992675782	99.84887695312503	-688.4889526367189	-356.2215270996094	128.5015258789063	-771.9201660156252	-431.1767578125001	81.22377777099611	-744.9260253906251	-206.7134399414063	54.751766204834	-760.9517211914064	-206.0822296142579	51.70922851562501	-719.4046020507814	-248.511459350586	34.76284790039063	-670.7133789062501	nan	nan	nan	
1154	5.765	-162.7962188720703	1691.535278320313	-755.6804199218751	-294.7581787109376	1651.710205078125	-779.4168090820315	-315.5536804199219	1631.753173828125	-645.7092895507814	-341.3809204101563	1531.915405273438	-709.5195312500001	-404.3990478515626	1201.864501953125	-725.5955200195314	-216.8116149902344	1447.696899414063	-712.6149902343751	-253.2438964843751	1501.284790039063	-852.0802001953127	-170.9282684326172	1434.102905273438	-950.655456542969	-130.9799499511719	1456.765747070313	-929.386169433594	-106.8184356689453	1411.851928710938	-963.4825439453127	-1.291992783546448	1395.262817382813	-970.0476074218752	-0.2755669951438904	1338.345458984375	-928.5193481445315	255.0687103271485	1441.603149414063	-856.2310791015627	259.7582397460938	1439.831176757813	-930.9624023437502	336.7160034179688	1456.281494140625	-848.5408935546877	-233.4073486328126	1487.772338867188	-567.4148559570314	-141.8712921142578	1382.526245117188	-470.1149291992189	-102.7172012329102	1406.6005859375	-484.158660888672	-78.34944915771486	1355.908447265625	-463.3714294433595	14.18076705932618	1341.73974609375	-462.1980285644532	13.93328189849854	1290.928955078125	-528.9879150390626	271.4142456054688	1404.35498046875	-504.0494384765626	352.5423278808594	1428.9833984375	-580.3328247070314	-253.8672943115235	1029.79052734375	-855.5567016601565	-246.7114715576172	1027.587524414063	-605.4656982421876	-429.5430603027345	1098.618896484375	-727.3112792968751	-442.8347778320314	1070.436767578125	-755.6264038085939	-446.8967895507814	1068.795776367188	-699.3957519531251	-232.4666290283204	709.5930175781251	-904.452819824219	-182.545166015625	642.7669677734376	-885.6135864257815	-144.0418548583985	655.0243530273439	-857.5097656250002	-202.5088806152344	586.4413452148439	-876.8287353515627	-206.8558807373047	541.1524047851564	-876.2954101562502	-216.5264434814454	539.9561157226564	-739.4639892578126	-355.4125671386719	427.7994995117189	-826.7265625000002	-408.1629943847657	468.1058044433595	-881.797302246094	-404.3978576660157	430.7354431152345	-860.2527465820315	-479.6533813476564	409.5542602539064	-828.7052001953127	-609.0300903320314	433.7795715332032	-860.0151977539065	-583.9105224609376	434.3389892578126	-773.6892089843752	-648.6765136718751	490.5143127441407	-821.3521728515627	-621.8193969726564	273.0509643554688	-765.1547851562501	-626.5638427734376	266.1304016113282	-801.7199707031252	-651.0566406250001	293.7727355957032	-859.3685302734377	-351.6858215332032	798.624450683594	-550.6915893554689	-319.4854736328126	741.0681762695314	-554.3591308593751	-286.1011352539063	740.7100219726564	-554.7285766601564	-349.1925048828126	667.5721435546876	-579.9898681640626	-337.2445068359376	515.9765014648439	-606.8215332031251	-334.3803100585938	516.0190429687501	-738.1952514648439	-295.2574157714844	361.0059204101563	-708.9808349609376	-317.5268249511719	273.4263610839844	-650.1386108398439	-292.5848388671876	275.7040710449219	-691.7470703125001	-311.0812683105469	234.0851440429688	-728.5220947265626	-360.9963684082032	99.88347625732425	-688.5791625976564	-356.2757263183594	128.4664611816407	-771.9948730468752	-431.1640930175782	81.21499633789064	-744.9530029296876	-206.6912689208985	54.73498535156251	-760.9729614257814	-206.0832519531251	51.70268630981447	-719.4198608398439	-248.5240936279297	34.7556495666504	-670.7619018554689	nan	nan	nan	
1155	5.77	-162.7586059570313	1691.663208007813	-755.6192626953126	-294.9106140136719	1651.796875	-779.435729980469	-315.8114624023438	1631.672485351563	-645.8489379882814	-341.5738220214844	1531.870727539063	-709.6069946289064	-404.290008544922	1201.725952148438	-725.5524291992189	-216.9038696289063	1447.732299804688	-712.5987548828126	-253.4456787109376	1501.255249023438	-852.1531982421877	-171.0594940185547	1434.101440429688	-950.7269287109377	-131.1014709472657	1456.751708984375	-929.3818359375002	-106.9255981445313	1411.904541015625	-963.5395507812502	-1.39596152305603	1395.29248046875	-970.0982666015627	-0.3439002335071564	1338.3876953125	-928.4807128906252	254.9015655517579	1441.786743164063	-856.238464355469	259.6252441406251	1439.970458984375	-930.9592895507815	336.6052246093751	1456.4716796875	-848.5874023437502	-233.5852203369141	1487.828125	-567.4296264648439	-142.0389404296875	1382.5712890625	-470.1497192382814	-102.8810653686524	1406.619384765625	-484.1328125000001	-78.52830505371095	1355.933837890625	-463.3559875488282	14.04328632354737	1341.742309570313	-462.2315063476564	13.79466819763184	1290.96435546875	-529.0433959960939	271.2406616210938	1404.401977539063	-504.0267944335939	352.4098815917969	1428.9921875	-580.3003540039064	-253.6108398437501	1029.739990234375	-855.4019165039065	-246.5149078369141	1027.67578125	-605.3271484375001	-429.4085693359376	1098.591552734375	-727.2752685546876	-442.4646301269532	1070.380126953125	-755.6554565429689	-446.770721435547	1068.782836914063	-699.4179687500001	-232.2833099365235	709.5675048828126	-904.220886230469	-182.4104461669922	642.6967773437501	-885.3623046875002	-143.875228881836	654.9385986328126	-857.2756958007815	-202.302963256836	586.3810424804689	-876.627624511719	-206.7361602783204	541.0946044921876	-876.0622558593752	-216.4551849365235	539.9249877929689	-739.1787719726564	-355.2743530273438	427.6924438476564	-826.6790161132815	-407.9820861816407	467.9347534179689	-881.6672363281252	-404.1168823242189	430.5440063476564	-860.0333251953127	-479.6058654785157	409.3991088867189	-827.3798828125002	-608.8032836914064	433.5337829589845	-860.073913574219	-583.8316040039064	434.1666259765626	-773.6589355468752	-648.5535278320314	490.1797180175782	-821.355651855469	-621.6514282226564	272.8278198242188	-764.9805297851564	-626.1766357421876	265.9067382812501	-801.339294433594	-650.8071899414064	293.3522644042969	-859.182067871094	-351.5377807617188	798.559265136719	-550.6937866210939	-319.3851318359376	740.9904174804689	-554.3831176757814	-285.9393005371094	740.6019287109376	-554.6906127929689	-349.0726623535157	667.4988403320314	-580.0705566406251	-337.0803833007813	515.9435424804689	-606.9630737304689	-334.2205810546876	515.9418945312501	-738.3253784179689	-295.2229309082032	360.9746398925782	-709.1782226562501	-317.3808288574219	273.3380432128907	-650.3831787109376	-292.4572143554688	275.7042846679688	-691.8109741210939	-311.0269470214844	234.0664672851563	-728.6278686523439	-360.9846191406251	99.89704132080081	-688.6315307617189	-356.2413635253907	128.4254913330078	-772.1403808593752	-431.1394348144532	81.20899963378908	-744.9983520507814	-206.6966705322266	54.72827148437501	-761.0142211914064	-206.0805206298829	51.74048233032228	-719.4355468750001	-248.5351715087891	34.79914855957032	-670.7776489257814	nan	nan	nan	
1156	5.775	-163.0811309814453	1691.680908203125	-755.6290893554689	-295.0770263671876	1651.808959960938	-779.4856567382815	-316.0834350585938	1631.616333007813	-645.8526611328126	-341.7982482910157	1531.845703125	-709.6890258789064	-404.2032470703126	1201.640625	-725.5906372070314	-217.1371307373047	1447.757690429688	-712.6105957031251	-253.656234741211	1501.235595703125	-852.2539062500002	-171.109130859375	1434.078002929688	-950.728454589844	-131.2116851806641	1456.77197265625	-929.3967895507815	-106.9680557250977	1411.928100585938	-963.5451660156252	-1.449807286262512	1395.342895507813	-970.0343017578127	-0.3609683215618134	1338.463012695313	-928.4262695312502	254.8274536132813	1441.9345703125	-856.2056884765627	259.4667968750001	1440.147338867188	-930.9258422851565	336.5101013183594	1456.63623046875	-848.5104980468752	-233.7913818359376	1487.78369140625	-567.5592041015626	-142.2078857421875	1382.557373046875	-470.1763610839845	-103.0318832397461	1406.638061523438	-484.1797485351564	-78.68135833740236	1355.9765625	-463.3580017089845	13.8552532196045	1341.789428710938	-462.2432250976564	13.62528991699219	1290.984985351563	-529.0357055664064	271.0776977539063	1404.415161132813	-504.0303344726564	352.2572021484376	1429.030151367188	-580.2957153320314	-253.3609771728516	1029.774658203125	-855.1949462890627	-246.3784179687501	1027.704223632813	-605.1672973632814	-429.2327270507814	1098.541625976563	-727.2560424804689	-442.3802490234376	1070.323120117188	-755.6238403320314	-446.6939086914064	1068.738647460938	-699.4340820312501	-232.0670928955079	709.4517211914064	-903.9739379882815	-182.2360229492188	642.6707153320314	-885.154968261719	-143.7013702392578	654.8875732421876	-856.9698486328127	-202.2818298339844	586.2986450195314	-876.2976684570315	-206.6362457275391	541.0070800781251	-875.858093261719	-216.4111328125001	539.8767089843751	-739.0112915039064	-355.1245117187501	427.5702514648439	-826.4473266601565	-407.8357238769532	467.776824951172	-881.5389404296877	-403.9636535644532	430.3335876464845	-859.8231201171877	-479.4283142089845	409.241180419922	-827.1223754882815	-608.6569213867189	433.236785888672	-860.1606445312502	-583.6953735351564	434.0117492675782	-773.6004638671877	-648.4458007812501	489.8830566406251	-821.426696777344	-621.4117431640626	272.6023559570313	-764.8316040039064	-625.9532470703126	265.7010803222657	-801.1748657226565	-650.5074462890626	293.0498046875001	-858.965515136719	-351.4602355957032	798.477722167969	-550.6848754882814	-319.2927246093751	740.9238281250001	-554.4320678710939	-285.8182067871094	740.5264282226564	-554.7694702148439	-348.8996582031251	667.4321899414064	-580.0886840820314	-336.8128662109376	515.9149780273439	-607.0332641601564	-334.0390014648438	515.8987426757814	-738.4241943359376	-295.0626220703126	360.9786987304688	-709.3646240234376	-317.2681884765626	273.3095397949219	-650.5108032226564	-292.3815917968751	275.6597900390626	-691.9822387695314	-311.0295104980469	234.0106811523438	-728.7507324218751	-360.9363403320313	99.91487121582034	-688.7161865234376	-356.2569885253907	128.3972778320313	-772.2220458984377	-431.1516418457032	81.18220520019533	-745.0112304687501	-206.6810455322266	54.72502899169923	-761.0361328125001	-206.0718383789063	51.74092864990236	-719.4730834960939	-248.5313873291016	34.81281661987305	-670.7753295898439	nan	nan	nan	
